<?xml version="1.0" encoding="UTF-8"?>
<svg width="1024px" height="1024px" viewBox="0 0 1024 1024" version="1.1" xmlns="http://www.w3.org/2000/svg" xmlns:xlink="http://www.w3.org/1999/xlink">
    <title>IssieDice App icon with border</title>
    <defs>
        <path d="M356.872609,0 L666.735993,0 C769.497766,0 820.865858,0 876.183372,17.4866469 C936.57628,39.4686417 984.13996,87.0323213 1006.12195,147.425229 C1023.6086,202.734214 1023.6086,254.119365 1023.6086,356.872609 L1023.6086,666.735993 C1023.6086,769.497766 1023.6086,820.865858 1006.12195,876.183372 C984.13996,936.57628 936.57628,984.13996 876.183372,1006.11342 C820.865858,1023.6086 769.497766,1023.6086 666.735993,1023.6086 L356.872609,1023.6086 C254.110835,1023.6086 202.734214,1023.6086 147.425229,1006.11342 C87.0323213,984.13996 39.4686417,936.57628 17.4866469,876.183372 C0,820.865858 0,769.497766 0,666.735993 L0,356.872609 C0,254.119365 0,202.734214 17.4866469,147.425229 C39.4686417,87.0323213 87.0323213,39.4686417 147.425229,17.4866469 C202.734214,0 254.110835,0 356.872609,0 L356.872609,0" id="path-1"></path>
        <linearGradient x1="2.34574298%" y1="97.654257%" x2="100%" y2="0%" id="linearGradient-3">
            <stop stop-color="#00B9EF" offset="0%"></stop>
            <stop stop-color="#00B9EF" offset="100%"></stop>
        </linearGradient>
        <polygon id="path-4" points="3.2031913e-14 0 272.824506 6.47135267e-14 272.824506 135.803322 0 135.803322 0 6.47135267e-14"></polygon>
        <rect id="path-6" x="0" y="0" width="1023.6086" height="1023.6086"></rect>
    </defs>
    <g id="IssieDice-App-icon-with-border" stroke="none" stroke-width="1" fill="none" fill-rule="evenodd">
        <g id="iOS" transform="translate(-1.000000, -186.000000)">
            <g id="1024" transform="translate(0.000000, 185.928906)">
                <mask id="mask-2" fill="white">
                    <use xlink:href="#path-1"></use>
                </mask>
                <use id="Icon-Shape" fill="#D6D6D6" xlink:href="#path-1"></use>
                <g id="Group" mask="url(#mask-2)">
                    <g id="Icon">
                        <rect id="Base" fill="url(#linearGradient-3)" x="0" y="0" width="1023.6086" height="1023.6086"></rect>
                        <g id="Group-2">
                            <g id="Issie-Logo" transform="translate(119.421003, 708.622313)">
                                <path d="M379.145382,136.546411 C379.145382,136.546411 349.419204,189.607743 410.481997,275.187224 C471.536155,360.771373 517.077436,320.949707 517.077436,320.949707 L504.526383,258.932816 L484.333307,164.752452 L379.145382,136.546411" id="Fill-3" fill="#FAA919"></path>
                                <path d="M558.566407,267.612257 C437.448649,309.010789 272.374993,233.023563 211.329742,169.103569 C106.533091,59.3203868 31.6925521,135.62691 3.57691659,149.488812 C-0.933081166,151.734903 -1.17626732,153.435986 2.83630421,154.173673 C24.728585,158.319031 97.4744066,177.922778 119.112447,258.721482 C210.323836,599.395068 496.377075,628.522679 646.870616,593.829388 C720.948434,576.746988 738.839197,545.235659 688.670999,560.517883 C646.096841,573.476945 613.388304,561.899669 612.962728,540.61686 C612.266331,506.518122 661.832091,500.341373 786.464995,435.887381 C985.612346,332.925048 905.195107,93.2044248 905.195107,93.2044248 C905.195107,93.2044248 789.278216,188.718326 558.566407,267.612257 Z" id="Fill-5" fill="#EEF4FA"></path>
                                <g id="Group-9" transform="translate(380.576249, 0.000000)">
                                    <mask id="mask-5" fill="white">
                                        <use xlink:href="#path-4"></use>
                                    </mask>
                                    <g id="Clip-8"></g>
                                    <path d="M272.824506,88.5720522 C272.824506,88.5720522 221.463825,90.4846523 167.596646,70.8440714 C145.592654,62.7974899 118.079775,27.1821449 94.9622841,15.0462423 C21.0341001,-23.8341841 4.71931888,24.9143477 4.71931888,24.9143477 L8.26718648,35.6249079 C2.65461321,45.2653229 -0.410888658,56.7682459 0.0444285311,69.0225476 C1.03620855,96.2998671 19.1001291,118.495135 42.6729368,124.228381 C55.8185301,129.014435 90.9365588,139.233184 141.625534,134.647498 C206.749416,128.741207 272.824506,88.5720522 272.824506,88.5720522" id="Fill-7" fill="#FAA919" mask="url(#mask-5)"></path>
                                </g>
                                <path d="M242.897285,39.71857 C242.897285,39.71857 284.98385,87.3412821 379.460536,119.232376 C473.946357,151.114462 528.702279,145.980181 594.209343,194.557689 C646.334569,233.190905 678.373337,289.857158 678.373337,289.857158 C678.373337,289.857158 622.735949,217.652948 507.049278,208.460783 C391.353473,199.255106 240.741576,95.2273583 242.897285,39.71857" id="Fill-10" fill="#FAA919"></path>
                            </g>
                            <mask id="mask-7" fill="white">
                                <use xlink:href="#path-6"></use>
                            </mask>
                            <rect stroke="#FFFFFF" stroke-width="4.21783362" x="2.10891681" y="2.10891681" width="1019.39077" height="1019.39077"></rect>
                        </g>
                        <g id="Group-5" transform="translate(217.516828, 106.625896)">
                            <g id="Group-13" transform="translate(191.926613, 0.000000)">
                                <rect id="Rectangle" stroke="#00B9EF" stroke-width="7.0297227" fill="#FFFFFF" x="3.51486135" y="3.51486135" width="385.353574" height="376.823503" rx="32.3367244"></rect>
                                <g id="Group-12" transform="translate(76.770645, 42.650358)" fill="#00B9EF">
                                    <g id="Group-3">
                                        <g id="Group" transform="translate(156.112484, 0.000000)">
                                            <ellipse id="Oval" cx="41.3593205" cy="41.5840994" rx="41.3593205" ry="41.5840994"></ellipse>
                                            <ellipse id="Oval" cx="41.3593205" cy="150.342513" rx="41.3593205" ry="41.5840994"></ellipse>
                                            <ellipse id="Oval" cx="41.3593205" cy="259.100927" rx="41.3593205" ry="41.5840994"></ellipse>
                                        </g>
                                        <ellipse id="Oval" cx="41.3593205" cy="259.100927" rx="41.3593205" ry="41.5840994"></ellipse>
                                    </g>
                                    <ellipse id="Oval" cx="41.3593205" cy="41.5840994" rx="41.3593205" ry="41.5840994"></ellipse>
                                    <ellipse id="Oval" cx="41.3593205" cy="150.342513" rx="41.3593205" ry="41.5840994"></ellipse>
                                </g>
                            </g>
                            <g id="Group-13" transform="translate(0.000000, 140.746183)">
                                <rect id="Rectangle" stroke="#00B9EF" stroke-width="7.0297227" fill="#FFFFFF" x="3.51486135" y="3.51486135" width="385.353574" height="376.823503" rx="32.3367244"></rect>
                                <g id="Group-12" transform="translate(76.770645, 42.650358)" fill="#00B9EF">
                                    <g id="Group-3">
                                        <g id="Group" transform="translate(156.215646, 0.000000)">
                                            <ellipse id="Oval" cx="41.3593205" cy="41.5840994" rx="41.3593205" ry="41.5840994"></ellipse>
                                            <ellipse id="Oval" cx="41.3593205" cy="150.342513" rx="41.3593205" ry="41.5840994"></ellipse>
                                            <ellipse id="Oval" cx="41.3593205" cy="259.100927" rx="41.3593205" ry="41.5840994"></ellipse>
                                        </g>
                                        <ellipse id="Oval" cx="41.3593205" cy="259.100927" rx="41.3593205" ry="41.5840994"></ellipse>
                                    </g>
                                    <ellipse id="Oval" cx="41.3593205" cy="41.5840994" rx="41.3593205" ry="41.5840994"></ellipse>
                                    <ellipse id="Oval" cx="41.3593205" cy="150.342513" rx="41.3593205" ry="41.5840994"></ellipse>
                                </g>
                            </g>
                        </g>
                    </g>
                </g>
            </g>
        </g>
    </g>
</svg>